# xmcd
#
# Track frame offsets:
# 150
# 6405
# 20536
# 38946
# 64421
# 85823
# 100315
# 117107
# 136085
# 156711
# 175720
# 181940
# 199872
# 221315
# 246182
# 266923
# 285964
#
# Disc length: 4169 seconds
#
#
# Revision: 0
# Processed by: cddbd v1.5.2PL0 Copyright (c) Steve Scherf et al.
# Submitted via: FreeRIP 2.95 
#
DISCID=f1104711
DTITLE=Soprano - puisqu'il faut vivre
DYEAR=2007
DGENRE=rap
TTITLE0=Donc
TTITLE1=Le Divan
TTITLE2=Mélancolique Anonyme
TTITLE3=Bombe Humaine
TTITLE4=Halla Halla
TTITLE5=Dans Ma Tête
TTITLE6=Moi J'ai Pas (Version Album)
TTITLE7=La Famille
TTITLE8=Tant Que Dieu (Remix)
TTITLE9=Juste Fais Le
TTITLE10=Le Bistrot Du Coin
TTITLE11=A La Bien
TTITLE12=Welcome
TTITLE13=Parle-Moi
TTITLE14=Ferme Les Yeux Et Imagine Toi
TTITLE15=Passe-Moi Le Mic
TTITLE16=Puisqu'il Faut Vivre
EXTD=
EXTT0=
EXTT1=
EXTT2=
EXTT3=
EXTT4=
EXTT5=
EXTT6=
EXTT7=
EXTT8=
EXTT9=
EXTT10=
EXTT11=
EXTT12=
EXTT13=
EXTT14=
EXTT15=
EXTT16=
PLAYORDER=
